<?xml version="1.0" encoding="UTF-8"?>
<svg id="Layer_1" data-name="Layer 1" xmlns="http://www.w3.org/2000/svg" viewBox="0 0 1024 1024">
    <g>
        <path
            d="M257.39,377.33c8.05-10.83,12.26-36.17,28.08-35.74,9.87,1.5,14.62-3.4,18.68-11.7,12.45-25.51,26.1-50.4,42.36-73.74,19.77-33.84,49.26-13.86,79.04-8.54,35.76,9.81,13.96,44.62,8.22,68.74-15.99,52.11-31.89,104.24-48.31,156.22-18.09,58.19-80.92,22.49-118.64,7.68-47.98-20.81-30.13-68.15-9.42-102.91Z"
            style="fill: #fffefe;" />
        <path
            d="M363.76,855.23c-10.7,15.91-18.42,34.92-36.46,43.69-17.07,8.45-37.44,2.08-47.17-14.4-15.22-24.31,3.27-48.79,15.02-70.05,18.78-31.8,38.84-62.85,58.48-94.1,7.94-13.47,12.08-28.44,14.83-43.71,6.92-41.44,17.38-82.01,25.34-123.25,12.16,39.5,42.67,69.9,69.77,100.08,1.67,1.75,2.44,3.3,1.77,5.86-7.84,27.07-10.45,56.45-27.03,80.07-26.34,37.68-51.19,76.17-74.54,115.81Z"
            style="fill: #fffefe;" />
        <path
            d="M757.34,523.34c-17.22,130.88-31.24,261.79-50.38,392.32-.68,5.31-4.14,8.26-8.67,7.55-4.4-.69-17.65-1.1-16.96-6.44,15.94-101.63,26.03-204.07,39.59-306.06,4.51-35.94,9.07-71.88,13.59-107.81.8-6.34.75-6.33,7.1-6.69,2.64-.15,15.83-.88,19.17-1.13-1.15,9.43-2.27,18.71-3.44,28.27Z"
            style="fill: #fffefe;" />
        <path
            d="M750.65,342.06c2.33-12.06-1.4-31.4,17.39-25.7,3.03,1.24,10.69,3.3,10.25,7.03-3.31,26.25-6.29,52.53-10.01,78.72-4.87-.41-19.97-.39-25.04-.82,2.46-19.77,4.9-39.36,7.4-59.23Z"
            style="fill: #fffefe;" />
    </g>
    <path
        d="M481.51,177.74c-4.83-55.97,61.92-99.22,107.74-64.77,76.06,52.21-.17,180.55-79.65,121.57-17.87-14.6-26.93-33.59-28.08-56.8Z"
        style="fill: #fffefe;" />
    <path
        d="M629.23,801.68c-2.1,39.94,5.7,117.64-52.97,112.9-55.18-12.42-34.69-79.4-31.66-119.6.63-38.92,13.62-85.56-18.85-115.35-36.37-35.15-73.19-70.36-101.07-112.94-13.92-19.46-17.7-44.15-12.76-67.35,16.87-65.5,35.57-130.8,56.8-195.06,10.21-31.32,50.14-43.23,78.35-29.07,26.44,15.18,35.05,47.51,51.53,71.52,32.79,58.34,42.04,79.43,114.21,68.98,9.79-.76,46.07-.27,55.6,2.24,31.45,7.96,21.91,56.25-9.31,58.24-40.28,3.32-85.17.59-125.3,1.09-14.3.16-24.96-5.47-33.63-16.44-25.16-31.83-50.5-63.52-75.8-95.24-1.16-1.46-5.42,5.53-7.79,7.3-2.68,2,.02,3.78,1.18,5.24,12.75,16.12,25.61,32.15,38.31,48.32.87,1.1,1.19,3.19.85,4.6-3.01,12.24-3.07,14.69-6.22,26.9-6,23.27-11.99,46.55-17.97,69.83-2.61,11.71,8.53,19.7,14.25,28.5,96.65,133.93,89.04,78.98,82.28,245.4Z"
        style="fill: #fffefe;" />
</svg>